<svg xmlns="http://www.w3.org/2000/svg" xmlns:xlink="http://www.w3.org/1999/xlink" width="375" viewBox="0 0 375 150" height="150" version="1.0"><defs><g id="c"><path d="M 4.765625 -5.515625 L 4.789062 -5.515625 L 8.464844 0 L 12.773438 0 L 8.351562 -5.671875 C 10.300781 -6.148438 11.867188 -7.875 11.867188 -10.484375 C 11.867188 -13.410156 9.644531 -15.429688 7.148438 -15.429688 L 1.363281 -15.429688 L 1.363281 0 L 4.765625 0 Z M 6.582031 -12.753906 C 7.578125 -12.753906 8.621094 -11.890625 8.621094 -10.484375 C 8.621094 -9.007812 7.578125 -8.191406 6.582031 -8.191406 L 4.765625 -8.191406 L 4.765625 -12.753906 Z M 6.582031 -12.753906"/></g><g id="d"><path d="M 10.300781 -3.085938 L 4.765625 -3.085938 L 4.765625 -6.195312 L 10.074219 -6.195312 L 10.074219 -9.28125 L 4.765625 -9.28125 L 4.765625 -12.34375 L 10.300781 -12.34375 L 10.300781 -15.429688 L 1.363281 -15.429688 L 1.363281 0 L 10.300781 0 Z M 10.300781 -3.085938"/></g><g id="e"><path d="M 7.351562 -2.40625 C 5.671875 -2.40625 4.21875 -3.246094 4.128906 -5.082031 L 0.679688 -5.082031 C 0.703125 -1.316406 3.8125 0.363281 7.214844 0.363281 C 10.371094 0.363281 13.613281 -0.976562 13.613281 -4.605469 C 13.613281 -10.484375 4.695312 -8.507812 4.695312 -11.253906 C 4.695312 -12.410156 6.035156 -12.867188 6.988281 -12.867188 C 8.691406 -12.867188 9.621094 -12.34375 9.800781 -10.734375 L 13.09375 -10.734375 C 12.980469 -14.25 10.121094 -15.65625 6.941406 -15.65625 C 4.128906 -15.65625 1.179688 -14.160156 1.179688 -10.980469 C 1.179688 -5.285156 10.097656 -7.214844 10.097656 -4.21875 C 10.097656 -2.835938 8.417969 -2.40625 7.351562 -2.40625 Z M 7.351562 -2.40625"/></g><g id="f"><path d="M 13.273438 -7.738281 C 13.273438 -5.355469 11.117188 -3.175781 8.734375 -3.175781 C 6.351562 -3.175781 4.199219 -5.355469 4.199219 -7.738281 C 4.199219 -10.121094 6.351562 -12.277344 8.734375 -12.277344 C 11.117188 -12.277344 13.273438 -10.121094 13.273438 -7.738281 Z M 16.675781 -7.714844 C 16.675781 -11.980469 13 -15.65625 8.734375 -15.65625 C 4.46875 -15.65625 0.792969 -11.980469 0.792969 -7.714844 C 0.792969 -3.449219 4.46875 0.226562 8.734375 0.226562 C 13 0.226562 16.675781 -3.449219 16.675781 -7.714844 Z M 16.675781 -7.714844"/></g><g id="g"><path d="M 10.371094 -15.429688 L 10.371094 -6.511719 C 10.371094 -4.378906 9.734375 -3.175781 7.398438 -3.175781 C 5.082031 -3.175781 4.425781 -4.378906 4.425781 -6.511719 L 4.425781 -15.429688 L 1.019531 -15.429688 L 1.019531 -6.011719 C 1.019531 -1.90625 3.382812 0.226562 7.398438 0.226562 C 11.414062 0.226562 13.773438 -1.90625 13.773438 -6.011719 L 13.773438 -15.429688 Z M 10.371094 -15.429688"/></g><g id="h"><path d="M 12.503906 -5.242188 C 11.867188 -3.878906 10.324219 -2.949219 8.734375 -2.949219 C 6.238281 -2.949219 4.242188 -5.082031 4.242188 -7.714844 C 4.242188 -10.324219 6.238281 -12.480469 8.734375 -12.480469 C 10.300781 -12.480469 11.84375 -11.617188 12.480469 -10.234375 L 16.269531 -10.234375 C 15.226562 -13.386719 12.253906 -15.65625 8.734375 -15.65625 C 4.355469 -15.65625 0.792969 -12.09375 0.792969 -7.714844 C 0.792969 -3.335938 4.355469 0.226562 8.734375 0.226562 C 12.253906 0.226562 15.25 -2.066406 16.292969 -5.242188 Z M 12.503906 -5.242188"/></g><g id="i"><path d="M 1.363281 0 L 10.300781 0 L 10.300781 -3.085938 L 4.765625 -3.085938 L 4.765625 -15.429688 L 1.363281 -15.429688 Z M 1.363281 0"/></g><g id="j"><path d="M 9.757812 -5.898438 L 5.855469 -5.898438 L 7.804688 -11.390625 Z M 15.519531 0 L 9.257812 -15.429688 L 6.375 -15.429688 L 0.113281 0 L 3.765625 0 L 4.878906 -3.109375 L 10.753906 -3.109375 L 11.867188 0 Z M 15.519531 0"/></g><g id="k"><path d="M 7.917969 -12.34375 L 12.320312 -12.34375 L 12.320312 -15.429688 L 0.113281 -15.429688 L 0.113281 -12.34375 L 4.515625 -12.34375 L 4.515625 0 L 7.917969 0 Z M 7.917969 -12.34375"/></g><g id="l"><path d="M 4.765625 0 L 4.765625 -15.429688 L 1.363281 -15.429688 L 1.363281 0 Z M 4.765625 0"/></g><g id="m"><path d="M 13.476562 0 L 13.476562 -15.429688 L 10.074219 -15.429688 L 10.074219 -5.808594 L 4.765625 -15.429688 L 1.363281 -15.429688 L 1.363281 0 L 4.765625 0 L 4.765625 -9.621094 L 10.074219 0 Z M 13.476562 0"/></g><clipPath id="a"><path d="M 36 17.011719 L 117 17.011719 L 117 75 L 36 75 Z M 36 17.011719"/></clipPath><clipPath id="b"><path d="M 15.054688 75.851562 L 95.71875 75.851562 L 95.71875 133.261719 L 15.054688 133.261719 Z M 15.054688 75.851562"/></clipPath></defs><g clip-path="url(#a)"><path fill="#00C2CB" d="M 88.308594 56.300781 C 85.566406 56.300781 84.640625 55.914062 76.074219 50.882812 C 73.679688 49.488281 70.746094 47.785156 67.117188 45.695312 C 70.746094 43.644531 73.640625 41.941406 76.035156 40.546875 C 84.71875 35.515625 85.644531 35.089844 88.308594 35.089844 C 94.136719 35.089844 98.84375 39.851562 98.882812 45.734375 C 98.84375 51.578125 94.097656 56.300781 88.308594 56.300781 Z M 116.945312 45.734375 C 116.945312 45.734375 116.945312 45.65625 116.945312 45.617188 C 116.90625 29.824219 104.054688 17.011719 88.308594 17.011719 C 80.355469 17.011719 76.265625 19.371094 64.222656 26.417969 C 58.511719 29.746094 50.679688 34.3125 39.367188 40.46875 C 37.480469 41.515625 36.28125 43.488281 36.28125 45.695312 C 36.28125 47.863281 37.480469 49.875 39.367188 50.921875 C 50.832031 57.152344 58.742188 61.757812 64.496094 65.128906 C 76.765625 72.289062 80.472656 74.417969 88.347656 74.417969 C 104.09375 74.417969 116.945312 61.527344 116.945312 45.734375"/></g><path fill="#5CE1E6" d="M 43.691406 54.714844 C 46.433594 54.714844 47.359375 55.101562 55.964844 60.132812 C 58.359375 61.527344 61.292969 63.230469 64.917969 65.28125 C 61.292969 67.335938 58.398438 69 56.003906 70.433594 C 47.320312 75.464844 46.394531 75.890625 43.730469 75.890625 C 37.902344 75.890625 33.195312 71.128906 33.195312 65.242188 C 33.15625 59.4375 37.902344 54.714844 43.691406 54.714844 Z M 67.777344 84.597656 C 73.488281 81.269531 81.320312 76.703125 92.632812 70.507812 C 94.519531 69.464844 95.71875 67.488281 95.71875 65.28125 C 95.71875 63.113281 94.519531 61.101562 92.632812 60.058594 C 81.167969 53.824219 73.292969 49.21875 67.542969 45.851562 C 55.269531 38.6875 51.566406 36.558594 43.691406 36.558594 C 27.90625 36.558594 15.054688 49.449219 15.054688 65.242188 L 15.054688 65.320312 C 15.09375 81.113281 27.945312 93.929688 43.691406 93.929688 C 51.644531 94.007812 55.695312 91.644531 67.777344 84.597656"/><path fill="#7ED957" d="M 88.308594 95.515625 C 85.566406 95.515625 84.640625 95.128906 76.074219 90.097656 C 73.679688 88.703125 70.746094 87 67.117188 84.910156 C 70.746094 82.855469 73.640625 81.15625 76.035156 79.761719 C 84.71875 74.726562 85.644531 74.304688 88.308594 74.304688 C 94.136719 74.304688 98.84375 79.066406 98.882812 84.949219 C 98.84375 90.832031 94.097656 95.515625 88.308594 95.515625 Z M 116.945312 84.949219 C 116.945312 84.949219 116.945312 84.871094 116.945312 84.832031 C 116.90625 69.039062 104.054688 56.226562 88.308594 56.226562 C 80.355469 56.226562 76.265625 58.585938 64.222656 65.628906 C 58.511719 68.960938 50.679688 73.527344 39.367188 79.683594 C 37.480469 80.726562 36.28125 82.703125 36.28125 84.910156 C 36.28125 87.078125 37.480469 89.089844 39.367188 90.136719 C 50.832031 96.367188 58.742188 100.972656 64.496094 104.34375 C 76.765625 111.503906 80.472656 113.632812 88.347656 113.632812 C 104.09375 113.671875 116.945312 100.78125 116.945312 84.949219"/><g clip-path="url(#b)"><path fill="#C9E265" d="M 43.691406 94.007812 C 46.433594 94.007812 47.359375 94.394531 55.964844 99.425781 C 58.359375 100.820312 61.292969 102.523438 64.917969 104.574219 C 61.328125 106.625 58.398438 108.289062 56.003906 109.683594 C 47.320312 114.71875 46.394531 115.144531 43.730469 115.144531 C 37.902344 115.144531 33.195312 110.382812 33.195312 104.496094 C 33.15625 98.730469 37.902344 94.007812 43.691406 94.007812 Z M 67.777344 123.890625 C 73.488281 120.5625 81.320312 115.996094 92.632812 109.800781 C 94.519531 108.757812 95.71875 106.78125 95.71875 104.574219 C 95.71875 102.40625 94.519531 100.394531 92.632812 99.347656 C 81.167969 93.078125 73.257812 88.507812 67.503906 85.140625 C 55.234375 77.980469 51.527344 75.851562 43.652344 75.851562 C 27.90625 75.890625 15.054688 88.78125 15.054688 104.574219 L 15.054688 104.652344 C 15.09375 120.445312 27.945312 133.257812 43.691406 133.257812 C 51.644531 133.296875 55.695312 130.9375 67.777344 123.890625"/></g><g fill="#30373F"><use x="131.575" y="67.834" xmlns:xlink="http://www.w3.org/1999/xlink" xlink:href="#c" xlink:type="simple" xlink:actuate="onLoad" xlink:show="embed"/></g><g fill="#30373F"><use x="147.481" y="67.834" xmlns:xlink="http://www.w3.org/1999/xlink" xlink:href="#d" xlink:type="simple" xlink:actuate="onLoad" xlink:show="embed"/></g><g fill="#30373F"><use x="162.547" y="67.834" xmlns:xlink="http://www.w3.org/1999/xlink" xlink:href="#e" xlink:type="simple" xlink:actuate="onLoad" xlink:show="embed"/></g><g fill="#30373F"><use x="180.246" y="67.834" xmlns:xlink="http://www.w3.org/1999/xlink" xlink:href="#e" xlink:type="simple" xlink:actuate="onLoad" xlink:show="embed"/></g><g fill="#30373F"><use x="197.944" y="67.834" xmlns:xlink="http://www.w3.org/1999/xlink" xlink:href="#f" xlink:type="simple" xlink:actuate="onLoad" xlink:show="embed"/></g><g fill="#30373F"><use x="218.818" y="67.834" xmlns:xlink="http://www.w3.org/1999/xlink" xlink:href="#g" xlink:type="simple" xlink:actuate="onLoad" xlink:show="embed"/></g><g fill="#30373F"><use x="237.016" y="67.834" xmlns:xlink="http://www.w3.org/1999/xlink" xlink:href="#c" xlink:type="simple" xlink:actuate="onLoad" xlink:show="embed"/></g><g fill="#30373F"><use x="252.922" y="67.834" xmlns:xlink="http://www.w3.org/1999/xlink" xlink:href="#h" xlink:type="simple" xlink:actuate="onLoad" xlink:show="embed"/></g><g fill="#30373F"><use x="273.184" y="67.834" xmlns:xlink="http://www.w3.org/1999/xlink" xlink:href="#d" xlink:type="simple" xlink:actuate="onLoad" xlink:show="embed"/></g><g fill="#30373F"><use x="288.25" y="67.834" xmlns:xlink="http://www.w3.org/1999/xlink" xlink:href="#e" xlink:type="simple" xlink:actuate="onLoad" xlink:show="embed"/></g><g fill="#30373F"><use x="131.575" y="94.708" xmlns:xlink="http://www.w3.org/1999/xlink" xlink:href="#c" xlink:type="simple" xlink:actuate="onLoad" xlink:show="embed"/></g><g fill="#30373F"><use x="147.481" y="94.708" xmlns:xlink="http://www.w3.org/1999/xlink" xlink:href="#d" xlink:type="simple" xlink:actuate="onLoad" xlink:show="embed"/></g><g fill="#30373F"><use x="162.547" y="94.708" xmlns:xlink="http://www.w3.org/1999/xlink" xlink:href="#i" xlink:type="simple" xlink:actuate="onLoad" xlink:show="embed"/></g><g fill="#30373F"><use x="177.046" y="94.708" xmlns:xlink="http://www.w3.org/1999/xlink" xlink:href="#j" xlink:type="simple" xlink:actuate="onLoad" xlink:show="embed"/></g><g fill="#30373F"><use x="196.083" y="94.708" xmlns:xlink="http://www.w3.org/1999/xlink" xlink:href="#k" xlink:type="simple" xlink:actuate="onLoad" xlink:show="embed"/></g><g fill="#30373F"><use x="211.921" y="94.708" xmlns:xlink="http://www.w3.org/1999/xlink" xlink:href="#l" xlink:type="simple" xlink:actuate="onLoad" xlink:show="embed"/></g><g fill="#30373F"><use x="221.451" y="94.708" xmlns:xlink="http://www.w3.org/1999/xlink" xlink:href="#f" xlink:type="simple" xlink:actuate="onLoad" xlink:show="embed"/></g><g fill="#30373F"><use x="242.326" y="94.708" xmlns:xlink="http://www.w3.org/1999/xlink" xlink:href="#m" xlink:type="simple" xlink:actuate="onLoad" xlink:show="embed"/></g><g fill="#30373F"><use x="260.569" y="94.708" xmlns:xlink="http://www.w3.org/1999/xlink" xlink:href="#m" xlink:type="simple" xlink:actuate="onLoad" xlink:show="embed"/></g><g fill="#30373F"><use x="278.811" y="94.708" xmlns:xlink="http://www.w3.org/1999/xlink" xlink:href="#d" xlink:type="simple" xlink:actuate="onLoad" xlink:show="embed"/></g><g fill="#30373F"><use x="293.878" y="94.708" xmlns:xlink="http://www.w3.org/1999/xlink" xlink:href="#i" xlink:type="simple" xlink:actuate="onLoad" xlink:show="embed"/></g><g fill="#30373F"><use x="308.377" y="94.708" xmlns:xlink="http://www.w3.org/1999/xlink" xlink:href="#i" xlink:type="simple" xlink:actuate="onLoad" xlink:show="embed"/></g><g fill="#30373F"><use x="322.876" y="94.708" xmlns:xlink="http://www.w3.org/1999/xlink" xlink:href="#d" xlink:type="simple" xlink:actuate="onLoad" xlink:show="embed"/></g><g fill="#30373F"><use x="337.942" y="94.708" xmlns:xlink="http://www.w3.org/1999/xlink" xlink:href="#e" xlink:type="simple" xlink:actuate="onLoad" xlink:show="embed"/></g></svg>